<?xml version="1.0" encoding="UTF-8" standalone="no"?>
<!DOCTYPE svg PUBLIC "-//W3C//DTD SVG 1.1//EN"
 "http://www.w3.org/Graphics/SVG/1.1/DTD/svg11.dtd">
<!-- Generated by graphviz version 2.40.1 (20161225.0304)
 -->
<!-- Title: G Pages: 1 -->
<svg width="398pt" height="262pt"
 viewBox="0.00 0.00 398.00 262.21" xmlns="http://www.w3.org/2000/svg" xmlns:xlink="http://www.w3.org/1999/xlink">
<g id="graph0" class="graph" transform="scale(1 1) rotate(0) translate(4 258.2139)">
<title>G</title>
<polygon fill="#ffffff" stroke="transparent" points="-4,4 -4,-258.2139 394,-258.2139 394,4 -4,4"/>
<g id="clust1" class="cluster">
<title>cluster_0</title>
<polygon fill="none" stroke="#0000ff" points="8,-64.2139 8,-210.2139 122,-210.2139 122,-64.2139 8,-64.2139"/>
<text text-anchor="middle" x="65" y="-195.0139" font-family="Times,serif" font-size="14.00" fill="#000000">import photos</text>
</g>
<g id="clust2" class="cluster">
<title>cluster_1</title>
<polygon fill="none" stroke="#0000ff" points="130,-64.2139 130,-210.2139 266,-210.2139 266,-64.2139 130,-64.2139"/>
<text text-anchor="middle" x="198" y="-195.0139" font-family="Times,serif" font-size="14.00" fill="#000000">automator_workflow</text>
</g>
<g id="clust3" class="cluster">
<title>cluster_4</title>
<polygon fill="none" stroke="#0000ff" points="274,-64.2139 274,-210.2139 382,-210.2139 382,-64.2139 274,-64.2139"/>
<text text-anchor="middle" x="328" y="-195.0139" font-family="Times,serif" font-size="14.00" fill="#000000">backup</text>
</g>
<!-- camera -->
<g id="node1" class="node">
<title>camera</title>
<polygon fill="#d3d3d3" stroke="#000000" points="93.4087,-180.2139 36.5913,-180.2139 36.5913,-144.2139 93.4087,-144.2139 93.4087,-180.2139"/>
<text text-anchor="middle" x="65" y="-158.0139" font-family="Times,serif" font-size="14.00" fill="#000000">camera</text>
</g>
<!-- image_capture -->
<g id="node2" class="node">
<title>image_capture</title>
<polygon fill="#d3d3d3" stroke="#000000" points="114.4012,-108.2139 15.5988,-108.2139 15.5988,-72.2139 114.4012,-72.2139 114.4012,-108.2139"/>
<text text-anchor="middle" x="65" y="-86.0139" font-family="Times,serif" font-size="14.00" fill="#000000">image_capture</text>
</g>
<!-- camera&#45;&gt;image_capture -->
<g id="edge2" class="edge">
<title>camera&#45;&gt;image_capture</title>
<path fill="none" stroke="#000000" d="M65,-144.0452C65,-136.3448 65,-127.1882 65,-118.6305"/>
<polygon fill="#000000" stroke="#000000" points="68.5001,-118.6271 65,-108.6271 61.5001,-118.6272 68.5001,-118.6271"/>
</g>
<!-- loop_over_images -->
<g id="node3" class="node">
<title>loop_over_images</title>
<polygon fill="#d3d3d3" stroke="#000000" points="257.9216,-180.2139 138.0784,-180.2139 138.0784,-144.2139 257.9216,-144.2139 257.9216,-180.2139"/>
<text text-anchor="middle" x="198" y="-158.0139" font-family="Times,serif" font-size="14.00" fill="#000000">loop_over_images</text>
</g>
<!-- image_capture&#45;&gt;loop_over_images -->
<g id="edge3" class="edge">
<title>image_capture&#45;&gt;loop_over_images</title>
<path fill="none" stroke="#000000" d="M98.5508,-108.3767C115.8757,-117.7556 137.1931,-129.2959 155.6422,-139.2833"/>
<polygon fill="#000000" stroke="#000000" points="153.9781,-142.3624 164.4385,-144.0452 157.3107,-136.2065 153.9781,-142.3624"/>
</g>
<!-- exiftool -->
<g id="node4" class="node">
<title>exiftool</title>
<polygon fill="#d3d3d3" stroke="#000000" points="242.5466,-108.2139 183.4534,-108.2139 183.4534,-72.2139 242.5466,-72.2139 242.5466,-108.2139"/>
<text text-anchor="middle" x="213" y="-86.0139" font-family="Times,serif" font-size="14.00" fill="#000000">exiftool</text>
</g>
<!-- loop_over_images&#45;&gt;exiftool -->
<g id="edge4" class="edge">
<title>loop_over_images&#45;&gt;exiftool</title>
<path fill="none" stroke="#000000" d="M201.7851,-144.0452C203.3894,-136.3448 205.297,-127.1882 207.0799,-118.6305"/>
<polygon fill="#000000" stroke="#000000" points="210.5507,-119.1308 209.1639,-108.6271 203.6979,-117.7031 210.5507,-119.1308"/>
</g>
<!-- mass_storage -->
<g id="node5" class="node">
<title>mass_storage</title>
<polygon fill="#d3d3d3" stroke="#000000" points="373.9287,-180.2139 282.0713,-180.2139 282.0713,-144.2139 373.9287,-144.2139 373.9287,-180.2139"/>
<text text-anchor="middle" x="328" y="-158.0139" font-family="Times,serif" font-size="14.00" fill="#000000">mass_storage</text>
</g>
<!-- exiftool&#45;&gt;mass_storage -->
<g id="edge5" class="edge">
<title>exiftool&#45;&gt;mass_storage</title>
<path fill="none" stroke="#000000" d="M242.0101,-108.3767C256.7179,-117.5851 274.7535,-128.8769 290.5023,-138.737"/>
<polygon fill="#000000" stroke="#000000" points="288.6475,-141.7051 298.9806,-144.0452 292.3621,-135.772 288.6475,-141.7051"/>
</g>
<!-- crash_plan -->
<g id="node6" class="node">
<title>crash_plan</title>
<polygon fill="#d3d3d3" stroke="#000000" points="366.1424,-108.2139 289.8576,-108.2139 289.8576,-72.2139 366.1424,-72.2139 366.1424,-108.2139"/>
<text text-anchor="middle" x="328" y="-86.0139" font-family="Times,serif" font-size="14.00" fill="#000000">crash_plan</text>
</g>
<!-- mass_storage&#45;&gt;crash_plan -->
<g id="edge6" class="edge">
<title>mass_storage&#45;&gt;crash_plan</title>
<path fill="none" stroke="#000000" d="M328,-144.0452C328,-136.3448 328,-127.1882 328,-118.6305"/>
<polygon fill="#000000" stroke="#000000" points="331.5001,-118.6271 328,-108.6271 324.5001,-118.6272 331.5001,-118.6271"/>
</g>
<!-- end -->
<g id="node8" class="node">
<title>end</title>
<polygon fill="none" stroke="#000000" points="346.2145,-36.3214 309.7855,-36.3214 309.7855,.1076 346.2145,.1076 346.2145,-36.3214"/>
<polyline fill="none" stroke="#000000" points="321.7855,-36.3214 309.7855,-24.3214 "/>
<polyline fill="none" stroke="#000000" points="309.7855,-11.8924 321.7855,.1076 "/>
<polyline fill="none" stroke="#000000" points="334.2145,.1076 346.2145,-11.8924 "/>
<polyline fill="none" stroke="#000000" points="346.2145,-24.3214 334.2145,-36.3214 "/>
<text text-anchor="middle" x="328" y="-13.9069" font-family="Times,serif" font-size="14.00" fill="#000000">end</text>
</g>
<!-- crash_plan&#45;&gt;end -->
<g id="edge7" class="edge">
<title>crash_plan&#45;&gt;end</title>
<path fill="none" stroke="#000000" d="M328,-72.0182C328,-64.2471 328,-54.995 328,-46.3681"/>
<polygon fill="#000000" stroke="#000000" points="331.5001,-46.2967 328,-36.2967 324.5001,-46.2968 331.5001,-46.2967"/>
</g>
<!-- start -->
<g id="node7" class="node">
<title>start</title>
<polygon fill="none" stroke="#000000" points="65,-254.2139 29.3482,-236.2139 65,-218.2139 100.6518,-236.2139 65,-254.2139"/>
<polyline fill="none" stroke="#000000" points="40.0603,-241.6222 40.0603,-230.8055 "/>
<polyline fill="none" stroke="#000000" points="54.2879,-223.6222 75.7121,-223.6222 "/>
<polyline fill="none" stroke="#000000" points="89.9397,-230.8055 89.9397,-241.6222 "/>
<polyline fill="none" stroke="#000000" points="75.7121,-248.8055 54.2879,-248.8055 "/>
<text text-anchor="middle" x="65" y="-232.0139" font-family="Times,serif" font-size="14.00" fill="#000000">start</text>
</g>
<!-- start&#45;&gt;camera -->
<g id="edge1" class="edge">
<title>start&#45;&gt;camera</title>
<path fill="none" stroke="#000000" d="M65,-217.9217C65,-209.6774 65,-199.7515 65,-190.5761"/>
<polygon fill="#000000" stroke="#000000" points="68.5001,-190.2956 65,-180.2956 61.5001,-190.2956 68.5001,-190.2956"/>
</g>
</g>
</svg>
